<?xml version="1.0" standalone="no"?><!DOCTYPE svg PUBLIC "-//W3C//DTD SVG 1.1//EN" "http://www.w3.org/Graphics/SVG/1.1/DTD/svg11.dtd"><svg t="1753784880074" class="icon" viewBox="0 0 1024 1024" version="1.1" xmlns="http://www.w3.org/2000/svg" p-id="6587" xmlns:xlink="http://www.w3.org/1999/xlink" width="200" height="200"><path d="M963.76 60.24v481.88h-60.24v421.64h-60.22V1024H180.7v-60.24H120.48V542.12H60.24V60.24h60.24V0h783.04v60.24z" p-id="6588"></path><path d="M722.82 481.88v180.7h-60.24v60.24h-120.46v-65.724l30.116-29.888V512l-30.116-28.706V421.64h120.46v60.24zM481.88 180.7v65.692l-30.12 24.666 0.004 115.926 30.116 34.656v60.24h-120.46v-60.24h-60.24v-180.7h60.24V180.7z" fill="#B3D141" p-id="6589"></path><path d="M481.88 722.82h60.24v60.24L512 813.18H271.058l-30.118-30.12-60.24-240.94-30.112-30.118V271.06l30.112-30.12 30.13-30.116 30.11 30.116v180.7h60.24v60.24h60.24v60.24h120.46zM722.82 662.58h60.24l30.11 30.126 0.01 60.234-30.12 30.12-30.12 30.12-60.234-0.004-30.126-30.116v-60.24h60.24zM843.3 240.94l30.112 30.12-0.002 240.94-30.11 30.12-30.12 30.11-30.12-30.11v-60.24h-60.24v-60.24h-60.24v-60.22h-120.46V180.7l30.12-30.112h120.46l30.12 30.112z" fill="#C0D9DD" p-id="6590"></path><path d="M843.3 843.3v120.46H180.7v-120.46l30.12-30.124 30.12 30.124 30.118 30.11 481.882 0.002 30.12-30.112 30.11-30.124zM903.52 60.24v120.46l-30.11 30.124H752.94L722.82 180.7l-30.12-30.112h-120.46L542.12 180.7h-60.24V120.48h-120.46v60.22h-60.24l-30.12 30.124H150.59L120.48 180.7V60.24z" fill="#F1F6F7" p-id="6591"></path><path d="M662.58 542.12v60.24l-30.11 30.11-30.11-30.11-30.12-30.12 30.12-30.12L632.47 512z" fill="#EEFFA7" p-id="6592"></path><path d="M602.36 602.36l30.11 30.11-30.11 30.11h-60.24v-60.22l30.12-30.12zM602.36 481.88L632.47 512l-30.11 30.12-30.12 30.12-30.12-30.12v-60.24zM481.88 361.42v60.22h-60.24l-30.11-30.11 30.11-30.11 30.124-30.12z" fill="#EEFFA7" p-id="6593"></path><path d="M481.88 240.94v60.24l-30.116 30.12-30.124-30.12-30.11-30.122 30.11-30.118z" fill="#EEFFA7" p-id="6594"></path><path d="M421.64 301.18l30.124 30.12-30.124 30.12-30.11 30.11-30.11-30.11v-60.24l30.11-30.122z" fill="#EEFFA7" p-id="6595"></path><path d="M602.36 602.36h60.22v60.22h-60.22zM602.36 481.88h60.22v60.24h-60.22zM542.12 542.12h60.24v60.24h-60.24zM421.64 301.18h60.24v60.24h-60.24zM361.42 361.42h60.22v60.22h-60.22zM361.42 240.94h60.22v60.24h-60.22z" fill="#738B28" p-id="6596"></path><path d="M120.48 240.94V180.7h180.7v60.24H180.7l-30.112 30.12zM240.94 783.06l30.118 30.12-30.118 30.12H180.7v-60.24l30.12-30.12zM301.18 662.58h60.24v60.24h-60.24z" fill="#607881" p-id="6597"></path><path d="M783.06 843.3v60.22H240.94v-60.22l30.118-30.12H752.94zM542.12 120.48h180.7v60.22h-180.7zM903.52 180.7v60.24l-30.108 30.12-30.118-30.118-120.474-0.002V180.7zM722.82 301.18h60.24v60.24h-60.24z" fill="#607881" p-id="6598"></path><path d="M783.06 783.06l30.12-30.12 30.12 30.12v60.24h-60.24l-30.12-30.12z" fill="#607881" p-id="6599"></path><path d="M240.94 783.06h542.12v60.24H240.94zM843.3 240.94h60.22v301.18h-60.22zM783.06 542.12h60.24v240.94h-60.24zM361.42 602.36h60.22v60.22h-60.22zM120.48 240.94h60.22v301.18H120.48zM180.7 542.12h60.24v240.94H180.7z" fill="#F1F6F7" p-id="6600"></path></svg>