<?xml version="1.0" standalone="no"?><!DOCTYPE svg PUBLIC "-//W3C//DTD SVG 1.1//EN" "http://www.w3.org/Graphics/SVG/1.1/DTD/svg11.dtd"><svg t="1753784862045" class="icon" viewBox="0 0 1024 1024" version="1.1" xmlns="http://www.w3.org/2000/svg" p-id="6230" xmlns:xlink="http://www.w3.org/1999/xlink" width="200" height="200"><path d="M783.06 0v120.48h-60.24v60.22h60.24v783.06h-60.24V1024H301.18v-60.24h-60.24V180.7h120.48V120.48h-60.24V60.24h60.24V0h120.46v60.24h120.48V0z" p-id="6231"></path><path d="M662.58 421.64l30.126 30.124-0.026 180.706-30.1 30.11-30.11 30.12-120.47 0.006-30.12-30.126v-60.22h60.24l-0.002-180.712 30.112-30.118h60.24z" fill="#C0D9DD" p-id="6232"></path><path d="M722.82 240.94v120.48l-30.12 30.11H512l-30.12-30.11h-60.24v-60.24h-120.46v-60.24zM662.58 843.3l30.126-30.124 30.114 30.124v120.46H301.18v-120.46l30.12-30.12 30.12 30.12 30.11 30.11 240.94 0.002z" fill="#F1F6F7" p-id="6233"></path><path d="M662.58 722.82l30.12 30.122 0.006 60.234-30.126 30.124-30.11 30.112-240.94-0.002-30.11-30.11-30.12-30.12v-60.24l30.12-30.12h60.22l30.12-30.12h174.448z" fill="#FFDD55" p-id="6234"></path><path d="M301.18 602.36h120.46v60.22h-120.46zM421.64 421.64h60.24v180.72h-60.24l-30.11-30.12v-120.48zM722.82 60.24v60.24h-60.24l-30.11 30.11L602.36 120.48V60.24z" fill="#B3D141" p-id="6235"></path><path d="M421.64 361.42v60.22l-30.11 30.12-60.23 0.004-30.12-30.124v-60.22zM481.88 60.24v60.24L512 150.59 481.88 180.7h-60.24V120.48h-60.22V60.24z" fill="#B3D141" p-id="6236"></path><path d="M481.88 361.42h240.94v60.22H481.88z" fill="#607881" p-id="6237"></path><path d="M722.82 722.82v60.24l-30.114 30.116-30.126-30.116v-60.24zM361.42 722.82v60.24l-30.12 30.12-30.12-30.12v-60.24z" fill="#FFF8E1" p-id="6238"></path><path d="M301.18 783.06h60.24v60.24h-60.24zM361.42 843.3h301.16v60.22H361.42zM421.64 662.58h301.18v60.24H421.64zM662.58 783.06h60.24v60.24h-60.24z" fill="#BA8F02" p-id="6239"></path><path d="M421.64 481.88v60.24l-30.11 30.12-30.11-30.12L331.294 512l30.126-30.12 30.11-30.12z" fill="#EEFFA7" p-id="6240"></path><path d="M361.42 542.12l30.11 30.12-30.11 30.12h-60.24v-60.24L331.294 512zM361.42 421.64l30.11 30.12-30.11 30.12L331.294 512l-30.114-30.12v-60.24z" fill="#EEFFA7" p-id="6241"></path><path d="M602.36 120.48h60.22v60.22h-60.22zM481.88 120.48h60.24v60.22h-60.24zM361.42 542.12h60.22v60.24h-60.22zM361.42 421.64h60.22v60.24h-60.22zM301.18 481.88h60.24v60.24h-60.24z" fill="#738B28" p-id="6242"></path><path d="M662.58 421.64h60.24v240.94h-60.24z" fill="#F1F6F7" p-id="6243"></path></svg>