<?xml version="1.0" standalone="no"?><!DOCTYPE svg PUBLIC "-//W3C//DTD SVG 1.1//EN" "http://www.w3.org/Graphics/SVG/1.1/DTD/svg11.dtd"><svg t="1753784856357" class="icon" viewBox="0 0 1024 1024" version="1.1" xmlns="http://www.w3.org/2000/svg" p-id="6054" xmlns:xlink="http://www.w3.org/1999/xlink" width="200" height="200"><path d="M903.52 542.12v-60.24h-60.22v-60.24h-180.72V180.7l-60.22-60.22h-60.24V60.24h-60.24V0h-120.46v60.24h-60.24v60.24h-60.24V60.24H120.48v60.24H60.24v120.458h60.24v180.7H60.24v481.88h60.24v60.24h60.22V1024h421.66v-60.24h60.22v-60.24h120.48v-60.22h60.24v-60.24h60.22v-60.24h60.24v-180.7z m-120.46 180.7h-60.24v-120.46h60.24z" p-id="6055"></path><path d="M843.3 542.12h60.22v180.7h-60.22zM843.3 481.88v60.24h-60.24L752.942 512l30.118-30.12zM783.06 722.82h60.24v60.24h-60.24z" fill="#F1F6F7" p-id="6056"></path><path d="M572.236 210.82v60.238L542.12 301.18H240.94l-30.116-30.122 30.118-30.116L301.18 180.7l120.46-60.22 27.014-30.12 33.226 30.12 60.24 60.22z" fill="#FFD298" p-id="6057"></path><path d="M602.36 481.88L632.47 512v361.41L602.36 903.52l-30.124 30.12-361.412 0.008L180.7 903.52l-30.11-30.11L150.588 512l30.112-30.12h120.48v60.24h60.24v60.24h60.22v60.22h60.24v-60.22h60.24v-120.48z" fill="#CA671B" p-id="6058"></path><path d="M602.36 361.42v60.22h-120.48v180.72h-60.24v-180.72h-60.22v60.24h-60.24v-60.24H180.7v-60.22z" fill="#9D5015" p-id="6059"></path><path d="M240.94 120.48v60.22H180.7v60.24H120.48V120.48z" fill="#71390F" p-id="6060"></path><path d="M722.82 783.06h60.24v60.24h-60.24zM722.82 481.88h60.24v60.24h-60.24z" fill="#C0D9DD" p-id="6061"></path><path d="M421.64 180.7h60.24v60.24h-60.24zM421.64 120.48v60.22h-120.46V120.48h60.24l30.11-30.128z" fill="#E99B62" p-id="6062"></path><path d="M180.7 240.94h60.24v60.24H180.7zM481.88 120.48h60.24v60.22h-60.24zM240.94 180.7h60.24v60.24h-60.24zM361.42 60.24h120.46v60.24h-120.46zM542.12 180.7h60.24v120.48h-60.24z" fill="#FFEEDC" p-id="6063"></path><path d="M120.48 421.64h60.22v481.88H120.48zM240.94 602.36h60.24v60.22h-60.24zM180.7 903.52h421.66v60.24H180.7zM602.36 421.64h60.22v481.88h-60.22zM481.88 722.82h60.24v60.24h-60.24z" fill="#EDAE80" p-id="6064"></path><path d="M722.82 0h60.24v60.24h-60.24zM662.58 60.24h60.24v60.24h-60.24zM602.36 120.48h60.22v60.22h-60.22zM301.18 722.82h60.24v60.24h-60.24zM240.94 783.06h60.24v60.24h-60.24z" fill="#71390F" p-id="6065"></path></svg>