<?xml version="1.0" standalone="no"?><!DOCTYPE svg PUBLIC "-//W3C//DTD SVG 1.1//EN" "http://www.w3.org/Graphics/SVG/1.1/DTD/svg11.dtd"><svg t="1753784898403" class="icon" viewBox="0 0 1024 1024" version="1.1" xmlns="http://www.w3.org/2000/svg" p-id="7118" xmlns:xlink="http://www.w3.org/1999/xlink" width="200" height="200"><path d="M1024 180.7v60.24h-120.48v662.58h-60.22v60.24h-60.24V1024H240.94v-60.24H180.7v-60.24H120.48V240.94H0V180.7h60.24V120.48h60.24V60.24h120.46V0h120.48v60.24h60.22v120.46h60.24V120.48h60.24V60.24h120.46v60.24h60.24v60.22z" p-id="7119"></path><path d="M602.36 120.48l30.11 30.108L602.36 180.7l-30.124 30.124L542.12 180.7V120.48z" fill="#FF4C04" p-id="7120"></path><path d="M210.82 150.59l30.12-30.11 30.12-30.128h60.234L361.42 120.48v60.22h-120.48zM301.18 301.18l-30.124 30.116-30.116-30.116-30.12-30.12 30.12-30.12h60.24z" fill="#FFDD55" p-id="7121"></path><path d="M783.06 361.42l30.116 30.11 0.004 301.176-30.12 30.114-60.24 60.24-30.114 30.12-361.406-0.004-30.12-30.116-60.24-60.24-30.116-30.12V391.53l30.116-30.11 30.118-30.126 481.882 0.006z" fill="#FFDD55" p-id="7122"></path><path d="M361.42 301.18v-60.24h180.7v60.24l-30.118 30.12H397.6zM813.176 752.938l30.124 30.122v120.46h-60.24v60.24H240.94v-60.24H180.7v-120.46l30.124-30.122 30.116 30.122 60.24 60.24 30.114 30.112h361.412l30.114-30.112 60.24-60.24zM843.3 240.94v60.24l-30.124 30.114H692.7l-30.12-30.114v-60.24z" fill="#F1F6F7" p-id="7123"></path><path d="M662.58 120.48v120.46h-120.46V180.7h60.24V120.48z" fill="#AD3200" p-id="7124"></path><path d="M301.18 602.36h60.24v60.22h-60.24zM301.18 783.06l30.12 30.116-30.12 30.124h-60.24v-60.24l30.118-30.122zM722.82 783.06l30.122-30.122 30.118 30.122v60.24h-60.24l-30.114-30.12zM361.42 602.36v-60.24h-60.24v-60.24h60.24v-60.24h60.22v60.24h60.24v60.24h-60.24v60.24z" fill="#BA8F02" p-id="7125"></path><path d="M240.94 722.82l30.118 30.118-30.118 30.122H180.7v-60.24l30.124-30.12zM722.82 843.3v60.22H301.18v-60.22l30.12-30.124 361.406 0.004zM481.88 662.58h60.24v60.24h-60.24zM783.06 722.82l30.12-30.114 30.12 30.114v60.24h-60.24l-30.118-30.122zM602.36 481.88h60.22v60.24h-60.22zM843.3 301.18v60.24l-30.124 30.11-30.116-30.11H240.94l-30.116 30.11L180.7 361.42v-60.24z" fill="#BA8F02" p-id="7126"></path><path d="M180.7 240.94h60.24v60.24H180.7zM120.48 120.48h120.46v60.22H120.48zM240.94 60.24h120.48v60.24h-120.48z" fill="#CA671B" p-id="7127"></path><path d="M602.36 602.36h60.22v60.22h-60.22zM240.94 722.82h60.24v60.24h-60.24zM361.42 481.88h60.22v60.24h-60.22zM542.12 421.64h60.24v60.24h-60.24zM722.82 722.82h60.24v60.24h-60.24zM783.06 361.42h60.24v361.4h-60.24zM180.7 361.42h60.24v361.4H180.7zM301.18 783.06h421.64v60.24H301.18z" fill="#FFF8E1" p-id="7128"></path></svg>