<?xml version="1.0" standalone="no"?><!DOCTYPE svg PUBLIC "-//W3C//DTD SVG 1.1//EN" "http://www.w3.org/Graphics/SVG/1.1/DTD/svg11.dtd"><svg t="1753784870406" class="icon" viewBox="0 0 1024 1024" version="1.1" xmlns="http://www.w3.org/2000/svg" p-id="6410" xmlns:xlink="http://www.w3.org/1999/xlink" width="200" height="200"><path d="M903.52 180.7v783.06h-60.22V1024H180.7v-60.24H120.48V180.7h60.22V120.48h301.18V60.24h60.24V0h120.46v60.24h60.24v60.24h120.48v60.22z" p-id="6411"></path><path d="M602.36 481.88h60.22L692.7 512l-1.876 421.648-28.244 30.112H240.94l-30.116-30.112-0.004-240.948 30.12-30.12h60.24v60.24h240.94v-60.24h60.24zM692.7 271.06v60.234l-30.12 30.126h-120.46v60.22H301.18v60.24h-60.24l-28.47-30.116V271.06l28.47-30.12 28.466-30.116h363.064l30.11 30.116z" fill="#B3D141" p-id="6412"></path><path d="M512 535.68v96.8h-180.7l-30.12-30.12v-120.48h180.7z" fill="#FFDD55" p-id="6413"></path><path d="M542.12 421.64h60.24v60.24h-60.24z" fill="#CA671B" p-id="6414"></path><path d="M632.47 90.352L602.36 120.48h-60.24V60.24h60.24z" fill="#FF4C04" p-id="6415"></path><path d="M783.06 180.7h60.24v783.06h-60.24z" fill="#738B28" p-id="6416"></path><path d="M722.82 180.7v783.06h-60.24V240.94H240.94v722.82H180.7V180.7z" fill="#EEFFA7" p-id="6417"></path><path d="M542.12 481.88v180.7H301.18v-60.22h180.7v-120.48z" fill="#BA8F02" p-id="6418"></path><path d="M301.18 783.06h60.24v60.24h-60.24zM421.64 783.06h180.72v60.24h-180.72z" fill="#738B28" p-id="6419"></path><path d="M602.36 60.24h60.22v60.24h-60.22z" fill="#AD3200" p-id="6420"></path></svg>